<svg id="Layer_1" fill="white" height="512" viewBox="0 0 512 512" width="512" xmlns="http://www.w3.org/2000/svg" data-name="Layer 1"><path d="m497.884 57.172a8.961 8.961 0 0 0 -7.192-2.071c-81.6 12.28-161.07 18.562-236.19 18.67a1574.327 1574.327 0 0 1 -234.887-17.319 7.493 7.493 0 0 0 -7.3 11.64l31.073 45.408a5 5 0 0 0 4.126 2.177h15.174v18.848a5 5 0 0 0 5 5h57.461l-2.683 26.951h-52.778a7.007 7.007 0 0 0 -7 7v21.573a7.007 7.007 0 0 0 7 7h49.806l-21.368 247.261a7 7 0 0 0 6.965 7.69h53.2a6.966 6.966 0 0 0 7-6.823l5.932-248.128h173.6l5.923 248.151a6.963 6.963 0 0 0 7 6.805h53.2a7 7 0 0 0 6.971-7.626l-21.378-247.33h46.4a7.007 7.007 0 0 0 7-7v-21.571a7.007 7.007 0 0 0 -7-7h-49.372l-2.683-26.951h54.054a5 5 0 0 0 5-5v-18.846h15a5 5 0 0 0 4.129-2.181l30.514-44.7c.06-.089.118-.179.173-.272a8.963 8.963 0 0 0 -1.867-11.357zm-342.524 389.828h-47l21.169-244.951h31.685zm76.74-254.951h-159.412v-15.569h159.412zm-99.585-25.569 2.684-26.951h27.583l-.742 26.951zm99.584 0h-60.055l.742-26.951h59.314zm41.666 25.569h-31.665v-52.52h31.666zm133.906 254.951h-47l-5.857-244.951h31.686zm32.267-270.52v15.569h-156.173v-15.569zm-156.173-10v-26.951h59.482l.742 26.951zm69.486-26.951h27.583l2.684 26.951h-29.525zm86.687-10h-367.25v-13.848h367.25zm22.356-23.848h-412.143l-26.341-38.5a1588.441 1588.441 0 0 0 230.707 16.59c74.891-.108 154.046-6.308 235.315-18.43z"/></svg>